<svg xmlns="http://www.w3.org/2000/svg" width="120.021" height="35.13" viewBox="0 0 120.021 35.13">
  <g id="그룹_2" data-name="그룹 2" transform="translate(-55.745 -31.438)">
    <path id="패스_1" data-name="패스 1" d="M74.593,40.521h6.593L78.475,66.329H71.88Zm.762-9.083h6.978l-.653,6.215H74.7Z" transform="translate(5.462)" fill="#989898"/>
    <path id="패스_2" data-name="패스 2" d="M117.156,44.414,115.087,64.1h-6.6l1.99-18.926c.1-.957-.155-1.242-1.351-1.242a12.935,12.935,0,0,0-6.517,1.529l-1.96,18.64h-6.6l1.99-18.926c.1-.957-.157-1.242-1.351-1.242a12.932,12.932,0,0,0-6.517,1.529L86.221,64.1H79.626L82.338,38.3h6.595l-.391,3.726c1.972-2.389,3.815-4.014,8.067-4.014,3.967,0,5.883,1.338,6.149,4.254,1.982-2.486,4.08-4.254,8.285-4.254C115.87,38.009,117.625,39.969,117.156,44.414Z" transform="translate(8.084 2.224)" fill="#989898"/>
    <path id="패스_3" data-name="패스 3" d="M109.08,57.865l2.064-19.641h6.595L115.755,57.1c-.1.956.157,1.243,1.542,1.243a13.606,13.606,0,0,0,7-1.53l1.953-18.59h6.595L130.13,64.032h-6.6l.4-3.775c-1.97,2.389-3.813,4.014-8.546,4.014C110.367,64.271,108.613,62.312,109.08,57.865Z" transform="translate(18.029 2.297)" fill="#989898"/>
    <path id="패스_4" data-name="패스 4" d="M130.319,38.285h6.595l-.4,3.775c1.97-2.389,3.815-4.014,8.546-4.014,5.018,0,6.771,1.96,6.3,6.4L149.3,64.092h-6.595l1.984-18.878c.1-.956-.155-1.242-1.541-1.242a13.593,13.593,0,0,0-7,1.529L134.2,64.092h-6.595Z" transform="translate(24.325 2.236)" fill="#989898"/>
    <path id="패스_5" data-name="패스 5" d="M73.066,50.584h-16.2l1.3-12.346h16.2Z" transform="translate(0.378 2.302)" fill="#989898"/>
    <path id="패스_6" data-name="패스 6" d="M71.949,60.627h-16.2l1.3-12.346h16.2Z" transform="translate(0 5.701)" fill="#989898"/>
  </g>
</svg>
